<svg width="48" height="38" viewBox="0 0 48 38" fill="none" xmlns="http://www.w3.org/2000/svg">
<path d="M47.2 17.9408L36.251 6.34082C35.6 5.63061 34.4755 5.57143 33.7653 6.28163C33.0551 6.93265 32.9959 8.05714 33.7061 8.76735L43.4714 19.1837L33.6469 29.5408C32.9959 30.251 32.9959 31.3755 33.7061 32.0265C34.0612 32.3224 34.4755 32.5 34.949 32.5C35.4224 32.5 35.8959 32.3224 36.251 31.9673L47.2 20.3673C47.851 19.7163 47.851 18.651 47.2 17.9408Z" fill="url(#paint0_linear)"/>
<path d="M14.2939 6.28163C13.5837 5.63061 12.4592 5.63061 11.8082 6.34081L0.800002 17.9408C0.148982 18.651 0.148982 19.7163 0.800002 20.3673L11.749 31.9673C12.1041 32.3224 12.5776 32.5 13.051 32.5C13.4653 32.5 13.9388 32.3224 14.2939 32.0265C15.0041 31.3755 15.0633 30.251 14.3531 29.5408L4.52857 19.1837L14.3531 8.82653C15.0041 8.11632 15.0041 6.99184 14.2939 6.28163Z" fill="url(#paint1_linear)"/>
<path d="M26.9 0.363266C25.9531 0.244898 25.0061 0.895919 24.8877 1.84286L19.6796 35.9326C19.5612 36.8796 20.2122 37.8265 21.1592 37.9449C21.2775 37.9449 21.3367 37.9449 21.4551 37.9449C22.3429 37.9449 23.0531 37.2939 23.2306 36.4653L28.4388 2.37551C28.4979 1.42857 27.8469 0.540817 26.9 0.363266Z" fill="url(#paint2_linear)"/>
<defs>
<linearGradient id="paint0_linear" x1="40.4271" y1="-4.29253" x2="40.4271" y2="37.6143" gradientUnits="userSpaceOnUse">
<stop stop-color="#00EFD1"/>
<stop offset="1" stop-color="#00ACEA"/>
</linearGradient>
<linearGradient id="paint1_linear" x1="7.5844" y1="-4.29254" x2="7.5844" y2="37.6143" gradientUnits="userSpaceOnUse">
<stop stop-color="#00EFD1"/>
<stop offset="1" stop-color="#00ACEA"/>
</linearGradient>
<linearGradient id="paint2_linear" x1="24.0541" y1="-4.29253" x2="24.0541" y2="37.6143" gradientUnits="userSpaceOnUse">
<stop stop-color="#00EFD1"/>
<stop offset="1" stop-color="#00ACEA"/>
</linearGradient>
</defs>
</svg>
