<svg width="58" height="58" viewBox="0 0 58 58" fill="none" xmlns="http://www.w3.org/2000/svg">
<path d="M28.5223 26.9941C31.7675 26.9913 34.3952 24.3578 34.392 21.1129C34.3892 17.8681 31.7558 15.24 28.5105 15.2432C25.266 15.2464 22.6379 17.8794 22.6411 21.1243C22.6514 24.3663 25.2802 26.9898 28.5223 26.9941ZM28.5223 17.5183C30.5137 17.5183 32.1283 19.1325 32.1283 21.1243C32.1283 23.1157 30.5137 24.7304 28.5223 24.7304C26.5305 24.7304 24.9162 23.1157 24.9162 21.1243C24.9166 19.1329 26.5312 17.5186 28.5223 17.5183Z" fill="#F2B165"/>
<path d="M20.6276 39.655H36.4165C37.0446 39.6536 37.5523 39.1452 37.554 38.5175C37.554 35.9466 36.6216 33.5805 34.9153 31.84C33.2274 30.1294 30.925 29.1667 28.5222 29.1667C26.1195 29.1667 23.817 30.1294 22.1292 31.84C20.4228 33.5805 19.4901 35.9466 19.4901 38.5175C19.4918 39.1452 19.9998 39.6536 20.6276 39.655ZM23.7559 33.4326C25.015 32.1589 26.7313 31.4419 28.5222 31.4419C30.3128 31.4419 32.0294 32.1589 33.2882 33.4326C34.3323 34.5097 35.0024 35.8933 35.1997 37.3799H21.8448C22.0396 35.8925 22.71 34.5076 23.7559 33.4326Z" fill="#F2B165"/>
<path d="M43.3104 5.68775H33.0724V2.95762C33.0706 2.33019 32.5623 1.82185 31.9349 1.82007H25.1095C24.4821 1.82185 23.9738 2.33019 23.972 2.95762V5.68775H13.734C10.5933 5.68917 8.04769 8.2348 8.04626 11.3755V50.5073C8.04769 53.648 10.5933 56.1936 13.734 56.1951H43.3104C46.4511 56.1936 48.9967 53.648 48.9981 50.5073V11.3755C48.9967 8.2348 46.4511 5.68917 43.3104 5.68775ZM26.2471 4.09517H30.7973V8.64538H26.2471V4.09517ZM46.723 50.5073C46.7177 52.3896 45.1927 53.9146 43.3104 53.92H13.734C11.8517 53.9146 10.3267 52.3896 10.3214 50.5073V11.3755C10.3267 9.49321 11.8517 7.96818 13.734 7.96285H23.972V9.78293C23.9738 10.4104 24.4821 10.9187 25.1095 10.9205H31.9349C32.5623 10.9187 33.0706 10.4104 33.0724 9.78293V7.96285H43.3104C45.1927 7.96818 46.7177 9.49321 46.723 11.3755V50.5073Z" fill="#FF9314"/>
<path d="M40.8305 47.7771H16.2139C15.5858 47.7771 15.0764 48.2862 15.0764 48.9147C15.0764 49.5432 15.5858 50.0522 16.2139 50.0522H40.8419C41.4704 50.049 41.977 49.5371 41.9738 48.909C41.9706 48.2805 41.4587 47.7739 40.8305 47.7771Z" fill="#F2B165"/>
<path d="M21.9017 42.772C21.2735 42.772 20.7641 43.281 20.7641 43.9095C20.7641 44.538 21.2735 45.0471 21.9017 45.0471H35.1541C35.7826 45.0471 36.2917 44.538 36.2917 43.9095C36.2917 43.281 35.7826 42.772 35.1541 42.772H21.9017Z" fill="#F2B165"/>
</svg>
