<svg width="59" height="59" viewBox="0 0 59 59" fill="none" xmlns="http://www.w3.org/2000/svg">
<g clip-path="url(#clip0)">
<path d="M28.9999 0.0617112C12.9871 0.0958483 0.0276817 13.1083 0.0618239 29.1235C0.0891398 41.9366 8.42079 52.789 19.954 56.5997C21.4022 56.8649 21.8691 55.9649 21.8675 55.2012L21.856 49.8024C13.7929 51.5741 12.1023 46.4012 12.1023 46.4012C10.7756 43.0521 8.87181 42.1644 8.87181 42.1644C6.23623 40.3696 9.06864 40.4022 9.06864 40.4022C11.9811 40.599 13.5193 43.3821 13.5193 43.3821C16.1145 47.8088 20.3095 46.519 21.9634 45.7736C22.218 43.9001 22.9668 42.6177 23.7966 41.8933C17.3546 41.17 10.5778 38.6977 10.5542 27.5883C10.5474 24.42 11.6753 21.8318 13.5246 19.7978C13.2233 19.0662 12.2238 16.1176 13.7909 12.1219C13.7909 12.1219 16.2253 11.3386 21.7747 15.0774C24.0861 14.4296 26.5649 14.1029 29.0298 14.0856C31.4949 14.0924 33.9774 14.4085 36.2964 15.0464C41.825 11.284 44.2578 12.057 44.2578 12.057C45.8444 16.0483 44.8574 19.0012 44.5593 19.7317C46.4245 21.7577 47.5537 24.3435 47.5605 27.5094C47.5842 38.6478 40.8059 41.1151 34.3501 41.8467C35.3912 42.7434 36.3447 44.5056 36.3505 47.2122L36.3674 55.1703C36.3691 55.9412 36.835 56.8465 38.3061 56.5582C49.8134 52.6935 58.089 41.8081 58.0617 28.9998C58.0276 12.9846 45.0151 0.027569 28.9999 0.0617112Z" fill="black"/>
</g>
<defs>
<clipPath id="clip0">
<rect width="58" height="58" fill="white" transform="translate(0 0.123535) rotate(-0.122147)"/>
</clipPath>
</defs>
</svg>
