<svg width="58" height="58" viewBox="0 0 58 58" fill="none" xmlns="http://www.w3.org/2000/svg">
<path d="M47.125 58H10.875C4.86838 58 0 53.1316 0 47.125V10.875C0 4.86838 4.86838 0 10.875 0H47.125C53.1316 0 58 4.86838 58 10.875V47.125C58 53.1316 53.1316 58 47.125 58Z" fill="#E3F8FA"/>
<path d="M29 15.1036C20.9887 15.1036 14.5 21.4836 14.5 29.3516C14.5 35.6483 18.6543 40.9879 24.4144 42.8693C25.1394 43.0034 25.4058 42.5629 25.4058 42.1841C25.4058 41.8452 25.3931 40.9498 25.3877 39.7626C21.3549 40.6217 20.503 37.8504 20.503 37.8504C19.8433 36.2065 18.8899 35.7661 18.8899 35.7661C17.5758 34.8834 18.9914 34.8997 18.9914 34.8997C20.4468 34.9994 21.2117 36.3678 21.2117 36.3678C22.504 38.5464 24.6065 37.9175 25.4348 37.5532C25.5653 36.6324 25.9387 36.0035 26.3537 35.6482C23.1329 35.2912 19.749 34.0659 19.749 28.6067C19.749 27.0516 20.3109 25.781 21.2407 24.7841C21.0776 24.4252 20.5882 22.9752 21.3676 21.0123C21.3676 21.0123 22.5819 20.6299 25.3551 22.4732C26.5151 22.156 27.7476 22.0001 28.9801 21.9929C30.2126 22.0001 31.4451 22.156 32.6051 22.4732C35.3601 20.6299 36.5744 21.0123 36.5744 21.0123C37.3538 22.9752 36.8644 24.4234 36.7194 24.7841C37.6438 25.781 38.2057 27.0516 38.2057 28.6067C38.2057 34.0804 34.8163 35.2857 31.5901 35.6356C32.0976 36.0633 32.5688 36.9369 32.5688 38.2709C32.5688 40.1777 32.5507 41.7092 32.5507 42.1732C32.5507 42.5466 32.8044 42.9925 33.5476 42.8493C39.3494 40.9824 43.5 35.6392 43.5 29.3534C43.5 21.4836 37.0076 15.1036 29 15.1036V15.1036Z" fill="#26C6DA"/>
</svg>
