<svg width="414" height="414" viewBox="0 0 414 414" fill="none" xmlns="http://www.w3.org/2000/svg">
<path d="M214.515 0.479387C211.569 1.5239 208.783 3.64893 207.78 5.66592C206.193 8.79944 205.124 15.0665 205.124 21.2615C205.124 25.8357 205.221 26.9883 206.16 31.8147C207.229 37.5415 210.273 43.5924 213.997 47.4103C216.07 49.5353 217.268 49.6794 219.567 48.1666C221.543 46.834 222.644 45.4653 224.198 42.4038C225.688 39.4144 226.4 36.7851 227.016 31.9587C227.534 27.5646 227.501 24.8273 226.789 19.5687C226.595 18.164 226.336 15.7508 226.206 14.1661C225.817 9.62785 223.421 4.15318 220.927 2.02814C218.369 -0.132911 217.139 -0.421051 214.515 0.479387Z" fill="#FF6347"/>
<path d="M170.409 3.72101C166.361 4.65747 163.932 6.81852 162.863 10.4203C162.345 12.1131 162.313 12.6173 162.669 14.4903C163.187 17.3356 163.899 18.7763 166.102 21.6578C169.631 26.232 173.485 27.9608 177.76 26.9163C180.998 26.0879 182.132 25.0074 182.941 22.0179C183.524 19.8209 183.589 13.7699 183.071 12.2932C182.002 9.41179 181.581 8.6194 180.156 6.96259C177.436 3.75703 174.554 2.78456 170.409 3.72101Z" fill="#FF6347"/>
<path d="M182.488 41.7555C181.711 41.9356 180.771 42.2958 180.383 42.5839C178.99 43.6284 175.946 47.1582 175.59 48.1306C174.975 49.8595 173.096 57.6753 172.222 62.0694C171.477 65.9233 170.344 68.5166 168.368 70.7857C166.555 72.8747 165.421 73.3429 163.932 72.6586C161.6 71.5781 157.876 68.4445 154.152 64.3746C149.715 59.5482 149.359 59.2601 144.599 56.3426C141.004 54.1456 137.15 52.5968 133.297 51.8044C131.386 51.4082 130.447 51.4082 128.31 51.7684C123.679 52.5608 121.056 54.4697 119.274 58.3236C117.04 63.222 116.392 72.6946 117.947 77.9172C118.303 79.1057 119.501 82.2393 120.57 84.8325C121.671 87.4618 122.804 90.6314 123.063 91.856C124.003 95.9259 123.063 101.004 121.25 101.545C120.797 101.689 118.4 101.797 115.874 101.833C111.632 101.869 109.495 101.653 101.334 100.248C87.6355 97.9429 78.5032 103.346 78.5032 113.755C78.5032 115.592 78.6975 116.564 79.4423 118.257C80.6405 121.066 81.8064 122.327 86.0163 125.388C89.5137 127.91 90.6795 129.278 93.8208 134.393C95.5047 137.238 94.7599 139.795 91.9101 140.768C90.5176 141.236 86.8583 141.776 83.037 142.028C81.7092 142.136 78.2118 142.389 75.2648 142.569C70.6663 142.929 67.2336 143.361 59.5587 144.73C50.8798 146.242 40.6141 149.988 36.0156 153.338C32.8096 155.643 29.8303 159.245 29.2797 161.406C28.9559 162.811 28.9559 163.459 29.3121 165.332C29.9598 168.537 32 170.914 36.469 173.616C40.2579 175.921 43.5934 177.218 51.4627 179.487C60.7569 182.152 61.4693 182.368 64.4162 183.737C70.9578 186.798 74.7467 189.752 75.1353 192.129C75.3944 193.75 75.1029 194.074 72.1884 195.118C70.9578 195.55 69.63 196.055 69.2738 196.235C68.9176 196.415 67.687 196.919 66.5212 197.351C55.3164 201.565 46.9289 206.824 41.0675 213.343C34.8174 220.259 35.3679 227.246 42.3952 230.235C44.1116 230.956 51.5922 231.496 54.442 231.064C56.2879 230.812 61.0807 229.803 65.8735 228.651C66.4888 228.507 69.2414 227.786 71.9941 227.066C83.3284 224.004 90.4205 223.284 94.4037 224.725C97.4154 225.805 98.225 226.382 98.4841 227.498C98.9698 229.695 96.4115 236.899 93.1407 242.517C85.4334 255.772 83.3608 263.336 85.1743 271.403C86.6639 278.103 89.9347 281.813 95.3428 283.073C97.7716 283.649 103.633 283.325 104.896 282.533C105.447 282.209 106.321 281.957 106.871 281.957C107.454 281.957 108.653 281.38 109.948 280.444C113.64 277.743 124.909 271.439 127.565 270.575C129.994 269.783 136.794 269.459 138.122 270.107C139.417 270.683 141.263 273.06 142.137 275.257C143.465 278.607 143.692 280.804 143.66 291.141C143.595 307.241 144.599 314.553 147.902 322.656C148.355 323.737 149.003 325.394 149.391 326.33C151.626 331.841 157.552 339.477 161.503 341.926C166.523 344.987 170.506 345.744 173.453 344.087C178.699 341.169 182.974 334.002 185.014 324.818C185.208 323.917 185.726 320.675 186.18 317.614C186.633 314.553 187.119 311.203 187.281 310.23C187.443 309.222 187.766 307.277 187.961 305.908C189.483 295.751 193.369 289.16 197.902 289.16C199.036 289.16 200.72 290.133 201.756 291.393C203.311 293.194 206.063 298.309 207.456 301.946C212.054 313.796 218.24 322.692 225.817 328.311C229.282 330.904 232.003 332.021 234.852 332.021C242.366 332.021 249.814 321.72 249.814 311.383C249.814 308.177 249.36 305.512 248 300.434C246.705 295.715 245.96 293.77 242.657 286.279C238.479 276.842 237.67 274.753 236.213 269.531C234.723 264.056 235.014 255.88 236.763 254.151C238.123 252.818 240.811 253.071 244.211 254.763C245.151 255.268 246.122 255.664 246.316 255.664C246.511 255.664 248.357 256.564 250.364 257.645C252.405 258.725 254.121 259.626 254.186 259.626C254.25 259.626 255.222 260.274 256.355 261.066C259.367 263.264 265.811 266.649 270.863 268.738C275.753 270.755 280.158 271.403 283.752 270.575C284.691 270.359 287.25 267.766 288.156 266.109C289.355 263.912 289.711 262.147 289.743 258.401C289.743 255.088 289.646 254.547 288.772 252.422C287.444 249.253 284.886 245.651 281.388 241.977C272.968 233.225 264.969 223.788 262.897 220.331C259.853 215.072 259.529 212.299 261.472 207.905C262.444 205.707 262.508 205.635 264.969 204.483C272.159 201.133 282.586 198.936 297.904 197.495C302.567 197.063 307.069 196.523 310.048 196.019C311.732 195.731 313.999 195.334 315.067 195.154C318.241 194.614 325.268 192.381 328.118 191.012C333.17 188.527 335.307 187.122 336.862 185.249C338.967 182.692 339.841 180.171 339.841 176.605C339.841 172.211 338.578 168.681 335.404 164.287C334.239 162.666 327.341 156.075 325.365 154.707C323.714 153.59 320.54 151.465 318.953 150.493C316.751 149.124 307.133 145.054 303.571 144.009C296.058 141.776 294.277 141.2 292.561 140.48C291.589 140.083 289.516 139.255 287.962 138.643C281.291 135.977 276.045 132.268 276.045 130.179C276.045 128.882 278.441 126.073 281.453 123.804C283.979 121.895 289.678 118.653 292.722 117.392C293.791 116.924 296.123 115.916 297.904 115.123C309.4 109.937 312.315 108.1 316.784 103.201C319.504 100.248 320.411 98.051 320.411 94.5573C320.411 93.0805 320.216 91.4958 320.022 91.0275C315.618 81.735 303.83 77.7011 293.37 81.9151C290.682 82.9956 283.007 87.4978 277.243 91.3517C270.183 96.106 268.078 97.2946 263.512 99.2035C259.367 100.968 257.942 101.257 253.603 101.257C249.684 101.257 249.425 101.221 248.616 100.392C247.515 99.2396 246.252 96.2501 246.252 94.7013C246.252 92 247.061 88.4703 248.907 83.3198C252.145 74.3514 252.502 72.7666 252.534 68.0123C252.566 64.1224 252.502 63.7623 251.692 62.2495C249.62 58.3956 245.507 55.2621 242.527 55.2621C239.192 55.2981 235.468 58.1435 232.942 62.6097C232.327 63.6902 230.805 66.6437 229.606 69.1649C227.89 72.7306 226.951 74.2074 225.396 75.8642C223.162 78.2773 220.571 79.574 218.045 79.61C214.839 79.61 210.629 76.5125 209.949 73.5951C208.686 68.2645 204.865 58.6478 202.436 54.7219C198.712 48.6709 191.264 42.8721 185.856 41.7555C184.819 41.5394 183.945 41.3593 183.945 41.3954C183.913 41.4314 183.265 41.5754 182.488 41.7555Z" fill="#FF6347"/>
<path d="M284.465 51.5883C283.137 52.0205 281.518 52.6688 280.87 52.957C274.847 55.8744 264.549 67.6881 262.605 73.9552C262.282 74.9277 261.958 76.9807 261.893 78.4574L261.731 81.1587L263.059 83.0316C263.771 84.0761 265.034 85.3367 265.876 85.877C267.204 86.7414 267.56 86.8135 269.471 86.6334C273.875 86.1651 279.251 82.3473 284.303 76.0442C291.136 67.6521 292.884 64.0143 292.884 58.4676C292.884 54.7938 291.816 52.5608 289.484 51.4082C287.833 50.5798 287.444 50.5798 284.465 51.5883Z" fill="#FF6347"/>
<path d="M72.7712 52.0206C71.573 52.5969 71.4435 53.4253 72.0588 56.4147C73.4189 62.8619 78.6003 69.237 88.6393 76.8367C97.7068 83.716 99.6498 84.9046 104.41 86.5974C106.321 87.2457 109.689 87.2457 110.887 86.5614C112.085 85.8771 112.636 84.0042 112.409 81.4829C112.215 79.3219 110.952 76.9447 107.228 71.5421C103.698 66.4996 97.0915 60.3406 91.6186 57.027C88.3802 55.046 83.1017 52.7409 80.2843 51.9846C77.6612 51.3362 74.1637 51.3362 72.7712 52.0206Z" fill="#FF6347"/>
<path d="M73.5161 79.2139C71.314 79.574 68.529 80.9067 67.5898 82.0232C66.6507 83.1398 66.4888 84.5084 66.9745 86.9216C67.3308 88.5784 67.7194 89.3348 68.9823 90.7755C71.2816 93.3688 72.7712 94.0171 76.7221 94.0171C79.3452 94.0531 80.3491 93.909 81.9035 93.2247C84.3323 92.2162 84.6237 91.928 85.3362 90.1632C86.1134 88.1102 86.3725 85.5169 85.9515 84.0402C85.4657 82.3474 83.2636 80.3304 81.2558 79.7181C79.0213 79.0338 75.8153 78.8177 73.5161 79.2139Z" fill="#FF6347"/>
<path d="M326.078 126.397C325.203 126.577 323.455 126.901 322.192 127.117C317.14 128.018 308.331 131.115 307.489 132.268C307.328 132.484 307.101 133.204 306.971 133.888C306.745 135.005 306.842 135.221 308.72 137.202C311.667 140.3 315.164 141.992 321.35 143.325C323.228 143.721 325.592 144.298 326.564 144.622C327.535 144.91 328.798 145.27 329.316 145.45C330.935 145.954 335.631 147.611 338.546 148.764C342.982 150.493 351.499 153.266 355.094 154.166C357.911 154.851 359.433 154.959 364.453 154.995C371.383 154.995 373.326 154.635 376.597 152.726C379.252 151.141 379.997 149.988 380.224 146.927C380.386 145.054 380.288 144.55 379.576 143.217C377.924 140.047 375.593 138.103 369.731 134.969C360.696 130.107 353.086 127.657 342.885 126.361C339.42 125.929 328.409 125.929 326.078 126.397Z" fill="#FF6347"/>
<path d="M371.253 167.025C369.31 167.349 367.918 168.213 366.817 169.834C366.072 170.915 365.91 171.563 365.78 173.796C365.521 179.559 368.112 182.908 374.492 185.25C376.661 186.042 381.648 186.15 383.268 185.43C386.279 184.097 388.708 180.999 389.226 177.83C389.453 176.389 388.805 174.228 387.704 172.932C386.992 172.103 380.159 168.213 377.73 167.241C376.338 166.7 373.844 166.592 371.253 167.025Z" fill="#FF6347"/>
<path d="M15.6785 178.262C9.46081 178.802 4.76515 180.639 1.49438 183.845C0.0694914 185.249 -0.0276601 185.43 0.00472373 187.086C0.0371076 189.031 1.36485 192.345 2.91927 194.434C4.57085 196.595 7.77685 197.964 14.8689 199.476C19.014 200.341 23.5802 200.557 26.8509 200.053C30.8989 199.368 32.1295 198.972 34.8174 197.459C37.3433 196.055 40.3874 192.777 41.1322 190.652C41.5856 189.247 41.5856 189.067 40.9379 187.122C40.0636 184.565 38.9625 183.052 37.6024 182.584C37.0195 182.404 35.3355 181.756 33.8135 181.143C32.2914 180.567 29.9598 179.811 28.6321 179.523C26.1709 178.946 19.2731 177.83 18.9493 177.902C18.8521 177.938 17.3625 178.082 15.6785 178.262Z" fill="#FF6347"/>
<path d="M394.116 207.941C391.007 209.165 389.097 212.263 388.805 216.477C388.579 219.934 389.226 221.591 391.849 224.293C392.983 225.517 394.343 226.706 394.829 226.994C397.776 228.615 404.091 228.975 407.329 227.642C411.83 225.805 414 223.536 414 220.763C414 218.17 413.32 216.405 411.539 214.28C409.596 211.939 407.426 210.426 403.605 208.661C401.208 207.58 400.561 207.4 398.132 207.436C396.61 207.436 394.829 207.652 394.116 207.941Z" fill="#FF6347"/>
<path d="M305.838 211.002C305.385 211.146 304.543 211.29 303.96 211.326C303.377 211.362 301.984 211.83 300.818 212.407C298.973 213.343 298.713 213.595 298.357 214.892C297.71 217.377 298.163 218.71 300.333 220.655C303.021 223.068 303.798 223.644 306.162 224.977C307.328 225.661 308.558 226.49 308.914 226.814C309.724 227.642 313.221 229.875 317.01 232C319.925 233.657 326.661 236.683 331.583 238.519C333.008 239.06 334.465 239.636 334.821 239.816C338.222 241.437 348.487 244.39 353.928 245.291C358.138 245.975 365.813 245.867 367.788 245.111C370.347 244.102 371.124 243.526 372.678 241.509C374.297 239.42 374.88 238.051 375.625 234.882C376.111 232.865 376.111 232.757 375.301 230.92C374.006 228.002 370.832 225.013 366.558 222.672C364.615 221.591 362.769 220.727 362.477 220.727C362.186 220.727 361.247 220.403 360.372 220.042C359.498 219.682 356.454 218.782 353.604 218.025C350.754 217.305 347.84 216.585 347.127 216.405C343.371 215.432 339.42 214.64 337.25 214.424C335.923 214.316 333.656 213.883 332.231 213.523C324.361 211.434 308.785 209.958 305.838 211.002Z" fill="#FF6347"/>
<path d="M290.812 225.553C287.476 226.922 285.177 231.748 286.084 235.458C286.57 237.547 288.707 239.996 291.136 241.293C292.949 242.229 293.467 242.373 294.827 242.157C298.746 241.545 300.818 239.132 300.527 235.422C300.397 233.153 299.199 229.911 297.871 228.182C295.864 225.517 293.241 224.545 290.812 225.553Z" fill="#FF6347"/>
<path d="M19.4027 234.017C15.4195 234.774 10.659 238.051 9.65514 240.789C8.35978 244.21 10.238 249.361 13.606 251.558C15.2252 252.638 17.913 253.503 19.5646 253.503C21.0866 253.503 23.5802 252.638 25.1994 251.522C27.2072 250.189 29.5712 247.524 30.2513 245.831C30.9961 244.03 31.0933 240.68 30.4456 238.988C29.0207 235.314 24.2603 233.153 19.4027 234.017Z" fill="#FF6347"/>
<path d="M59.5586 242.013C51.2036 243.706 41.5532 247.272 33.5544 251.594C23.1915 257.177 16.4557 262.579 13.9945 267.189C12.4077 270.143 11.8248 273.601 12.5696 275.546C13.2173 277.238 14.7393 279.183 16.1966 280.192C18.7226 281.921 26.6242 282.173 31.7085 280.66C35.9832 279.435 36.1127 279.363 39.1892 277.815C40.1607 277.31 41.035 276.914 41.1322 276.914C41.3265 276.914 48.6129 272.88 51.6246 271.079C53.9562 269.675 61.3073 264.416 64.1895 262.039C67.3631 259.446 69.4357 257.393 71.1196 255.124L72.7712 252.962L72.5769 249.793C72.3826 246.335 71.7349 244.426 70.4072 243.346C69.4357 242.589 65.0639 241.617 62.797 241.653C61.9226 241.689 60.4654 241.833 59.5586 242.013Z" fill="#FF6347"/>
<path d="M321.253 254.331C319.212 255.16 316.492 257.609 315.715 259.302C315.456 259.842 315.132 261.391 315.035 262.759C314.841 265.028 314.905 265.461 315.747 267.334C316.946 270.071 319.212 272.592 323.001 275.329C327.179 278.355 329.834 279.183 334.821 279.003C337.898 278.895 338.643 278.751 340.327 277.887C343.857 276.05 344.99 274.105 345.022 269.927C345.022 267.586 344.958 267.37 343.597 265.245C340.812 260.958 336.797 257.141 332.878 255.124C329.511 253.395 324.394 253.035 321.253 254.331Z" fill="#FF6347"/>
<path d="M269.73 288.152C266.492 289.412 265.909 290.133 265.002 293.77C264.192 296.904 264.225 301.226 265.002 306.268C266.006 312.427 266.2 313.328 267.107 315.561C267.56 316.714 267.949 317.974 267.949 318.334C267.949 318.731 268.078 319.343 268.24 319.703C268.37 320.027 268.694 320.892 268.92 321.576C269.989 324.998 270.442 326.114 272.677 331.301C276.531 340.161 278.635 344.591 280.287 347.509C281.161 348.985 282.813 351.903 283.979 353.956C287.185 359.574 290.974 364.869 294.957 369.299C301.045 376.034 304.186 377.619 309.433 376.755C313.416 376.071 314.063 375.746 315.812 373.621C318.986 369.767 320.022 365.409 319.115 359.899C317.852 352.263 313.124 340.161 307.781 330.941C303.053 322.765 292.787 307.025 290.002 303.747C288.998 302.559 287.185 300.254 285.954 298.597C281.809 293.122 278.02 289.917 274.037 288.44C271.867 287.647 271.187 287.611 269.73 288.152Z" fill="#FF6347"/>
<path d="M82.0007 306.413C80.8025 306.953 79.4423 307.745 78.9242 308.105C77.5965 309.078 74.941 312.427 73.6456 314.697C72.6093 316.533 72.5122 316.93 72.415 320.135C72.2531 323.989 72.5446 325.034 74.2609 326.835C75.9773 328.635 79.8309 329.248 82.9074 328.239C84.9152 327.591 88.6394 324.745 90.3881 322.512C91.9425 320.567 93.2702 317.578 93.756 315.021C94.7275 310.122 91.3272 305.8 86.3077 305.512C84.5266 305.404 83.8142 305.548 82.0007 306.413Z" fill="#FF6347"/>
<path d="M198.971 331.733C195.409 332.849 191.879 338.756 189.159 348.229C184.852 363.212 184.107 368.039 184.075 381.365C184.075 391.018 185.046 396.925 187.443 401.391C188.058 402.615 188.738 404.02 188.9 404.524C189.094 405.065 190.13 406.721 191.264 408.234C192.98 410.611 193.595 411.188 195.571 412.16C201.335 415.114 206.419 414.501 210.241 410.395C211.795 408.774 212.313 407.802 213.026 405.425C214.451 400.526 214.839 395.988 214.872 383.958C214.872 369.803 214.224 362.132 212.249 353.055C211.083 347.761 210.565 346.176 208.136 339.945C205.966 334.326 204.509 332.309 202.339 331.877C201.659 331.733 200.849 331.553 200.59 331.481C200.331 331.445 199.586 331.517 198.971 331.733Z" fill="#FF6347"/>
<path d="M133.847 334.866C131.969 335.515 130.123 337.208 129.249 339.117C127.986 341.782 128.277 346.608 129.896 350.21C131.159 353.055 131.969 353.596 134.851 353.596C137.96 353.596 140.389 352.407 141.781 350.138C143.141 347.977 143.336 343.943 142.299 340.737C140.874 336.379 137.118 333.786 133.847 334.866Z" fill="#FF6347"/>
<path d="M260.824 348.373C259.011 349.381 256.906 352.191 255.934 354.964C255.287 356.729 255.19 357.666 255.222 361.087C255.254 365.553 255.384 365.95 258.46 370.344C260.76 373.621 265.714 376.323 269.438 376.323C271.479 376.323 271.576 376.287 273.13 374.666C274.911 372.793 275.721 370.74 275.721 367.895C275.721 366.886 275.85 365.445 276.012 364.689C276.369 362.96 276.142 361.952 274.069 356.873C272.936 354.064 270.378 350.642 268.402 349.309C267.107 348.409 264.549 347.509 263.253 347.509C262.735 347.509 261.634 347.905 260.824 348.373Z" fill="#FF6347"/>
<path d="M161.73 352.659C160.37 353.379 158.491 355.144 158.006 356.117C156.386 359.646 155.739 365.337 156.548 368.939C157.423 372.721 157.941 374.126 158.75 374.99C159.949 376.251 163.317 378.124 164.32 378.124C166.782 378.051 169.988 375.494 171.283 372.541C173.096 368.471 173.42 365.229 172.546 361.231C171.801 357.99 170.214 355.432 167.818 353.632C166.134 352.407 165.616 352.191 164.191 352.227C163.284 352.227 162.183 352.443 161.73 352.659Z" fill="#FF6347"/>
<path d="M139.547 379.06C138.802 379.348 137.701 380.032 137.086 380.645C134.981 382.554 134.333 387.344 135.531 392.35C136.179 394.98 138.964 397.213 141.652 397.213C144.437 397.213 148.42 393.935 149.132 390.982C149.618 389.037 149.327 384.823 148.582 383.166C147.902 381.617 146.315 379.672 145.149 378.988C144.048 378.34 141.231 378.376 139.547 379.06Z" fill="#FF6347"/>
</svg>
