<svg width="788" height="551" viewBox="0 0 788 551" fill="none" xmlns="http://www.w3.org/2000/svg">
<g id="design" clip-path="url(#clip0)">
<rect width="788" height="551" fill="white"/>
<g id="Vector 2">
<path d="M398 669L-171 205C-146.778 199.263 66.9798 146.904 722 -15.0085L825 358L398 669Z" fill="black" fill-opacity="0.83"/>
<path d="M815 -38C783.054 -30.1013 752.062 -22.4395 722 -15.0085M722 -15.0085C66.9798 146.904 -146.778 199.263 -171 205L398 669L825 358L722 -15.0085Z" stroke="black"/>
<path d="M815 -38C783.054 -30.1013 752.062 -22.4395 722 -15.0085M722 -15.0085C66.9798 146.904 -146.778 199.263 -171 205L398 669L825 358L722 -15.0085Z" stroke="url(#paint0_linear)"/>
</g>
<g id="undraw_dev_productivity_umsq 1">
<path id="Vector" d="M493.85 427.171C493.85 427.171 491.346 428.025 487.276 429.235C478.278 431.922 461.628 436.379 447.518 437.269C435.369 438.045 425.104 436.18 423.226 428.287C422.422 424.893 423.563 422.101 426.05 419.807C433.476 412.95 452.871 410.494 468.254 409.651C472.598 409.415 476.616 409.305 479.961 409.263C485.64 409.19 489.364 409.305 489.364 409.305L489.453 409.651L493.85 427.171Z" fill="#A0616A"/>
<path id="Vector_2" d="M419.08 125.585L411.849 122.702C411.849 122.702 426.968 106.124 448.004 107.565L442.087 101.078C442.087 101.078 456.549 95.3121 469.696 110.448C476.607 118.405 484.603 127.758 489.588 138.294H497.332L494.1 145.382L505.412 152.469L493.801 151.196C494.493 155.078 494.599 159.04 494.116 162.953C493.618 166.866 491.613 170.434 488.524 172.903V172.903C488.524 172.903 479.556 154.416 479.556 151.533V158.741C479.556 158.741 472.325 152.254 472.325 147.929L468.381 152.975L466.409 145.046L442.087 152.975L446.031 146.488L430.912 148.65L436.829 140.721C436.829 140.721 419.738 150.091 419.08 158.02C418.423 165.949 413.42 173.461 413.42 173.461C413.42 173.461 400.017 136.397 419.08 125.585Z" fill="#2F2E41"/>
<path id="Vector_3" d="M451.814 452.286C442.148 464.207 402.243 439.234 388.285 429.921C385.246 427.894 383.436 426.61 383.436 426.61L396.205 409.651L400.249 404.282C400.249 404.282 403.868 406.194 409.216 409.305C409.411 409.42 409.605 409.535 409.805 409.651C414.417 412.348 420.207 415.873 426.05 419.807C434.112 425.238 442.264 431.434 447.518 437.269C452.656 442.973 455.017 448.332 451.814 452.286Z" fill="#A0616A"/>
<g id="me">
<path id="Vector_4" d="M451.252 200.535C472.611 200.535 489.925 183.29 489.925 162.018C489.925 140.746 472.611 123.501 451.252 123.501C429.894 123.501 412.579 140.746 412.579 162.018C412.579 183.29 429.894 200.535 451.252 200.535Z" fill="#A0616A"/>
<path id="Vector_5" d="M422.388 181.276C422.388 181.276 429.674 235.981 418.464 242.121C407.255 248.262 485.161 248.82 485.161 248.82C485.161 248.82 467.786 201.372 475.633 186.858L422.388 181.276Z" fill="#A0616A"/>
<path id="Vector_6" d="M542.049 249.097L535.569 278.481L521.87 340.648L521.46 344.053L516.732 383.467L513.587 409.651L511.478 427.239C498.656 433.802 489.364 438.333 489.364 438.333C489.364 438.333 488.564 434.341 487.276 429.235C478.278 431.922 461.628 436.379 447.518 437.269C452.656 442.973 455.017 448.332 451.814 452.286C442.148 464.207 402.243 439.234 388.285 429.921C387.96 432.151 387.837 434.405 387.917 436.657L377.236 428.475L378.293 409.651L380.076 377.8L382.316 337.856C381.61 336.146 381.018 334.391 380.544 332.603C377.273 321.017 373.302 297.881 370.257 278.481C367.807 262.867 365.966 249.673 365.577 246.865C365.524 246.499 365.498 246.31 365.498 246.31L424.625 220.289C428.827 229.995 448.449 232.912 448.449 232.912C464.704 231.796 477.447 223.259 477.447 223.259L542.049 249.097Z" fill="#1D1743"/>
<path id="Vector_7" d="M584.084 384.184C580.145 388.438 570.384 394.843 558.551 401.778C554.15 404.355 549.464 407.011 544.683 409.651C533.277 415.952 521.333 422.195 511.478 427.239C498.656 433.802 489.364 438.333 489.364 438.333C489.364 438.333 488.564 434.341 487.276 429.235C485.551 422.399 482.953 413.563 480.245 409.651C480.15 409.514 480.055 409.389 479.961 409.263C479.172 408.231 478.378 407.629 477.594 407.629L516.732 383.467L533.645 373.023L521.46 344.053L506.177 307.713L515.401 278.481L524.673 249.097H542.049C542.049 249.097 547.802 261.605 555.159 279.046C556.258 281.655 557.394 284.373 558.551 287.181C573.687 323.845 592.556 375.044 584.084 384.184Z" fill="#D0CDE1"/>
<path id="Vector_8" d="M409.216 409.305C407.789 409.299 406.364 409.415 404.956 409.651C392.866 411.72 389.3 422.619 388.285 429.921C387.96 432.151 387.837 434.405 387.917 436.657L377.236 428.475L373.344 425.495C363.978 422.242 355.632 416.465 348.396 409.651C342.118 403.634 336.487 396.983 331.593 389.805C326.719 382.729 322.374 375.307 318.593 367.596C317.538 365.445 316.971 363.089 316.931 360.694C316.892 358.3 317.382 355.927 318.366 353.742L331.593 324.385L350.925 281.477C351.067 280.455 351.223 279.457 351.393 278.481C355.227 256.587 365.498 246.865 365.498 246.865H373.344L378.593 278.481L385.114 317.759L380.544 332.603L369.984 366.884L380.076 377.8L409.216 409.305Z" fill="#D0CDE1"/>
</g>
<path id="Vector_9" d="M418.097 317.79L424.805 325.584C427.297 325.111 429.899 324.555 432.58 323.931L430.653 317.79L435.364 323.264C463.761 316.308 498.96 302.783 498.96 302.783C498.96 302.783 460.959 305.559 432.586 299.385C420.033 296.653 407.116 302.851 401.965 314.576C398.971 321.39 399.441 327.295 410.061 327.295C413.649 327.233 417.227 326.898 420.764 326.292L418.097 317.79Z" fill="#6C63FF"/>
<path id="Vector_10" d="M571.015 445.896V449.075C571.017 449.948 570.855 450.813 570.537 451.626C570.396 451.989 570.225 452.339 570.027 452.674C569.4 453.722 568.51 454.589 567.446 455.191C566.381 455.794 565.177 456.11 563.952 456.11H329.111C327.886 456.11 326.682 455.794 325.618 455.191C324.553 454.589 323.663 453.722 323.037 452.674C322.838 452.339 322.668 451.989 322.526 451.626C322.208 450.813 322.046 449.948 322.048 449.075V445.896C322.048 444.972 322.23 444.057 322.585 443.204C322.94 442.35 323.46 441.575 324.116 440.921C324.772 440.268 325.551 439.75 326.408 439.397C327.265 439.043 328.183 438.861 329.111 438.862H342.647V437.379C342.647 437.341 342.655 437.303 342.67 437.267C342.684 437.231 342.706 437.199 342.734 437.172C342.761 437.145 342.793 437.123 342.829 437.108C342.865 437.094 342.903 437.086 342.942 437.086H350.005C350.043 437.086 350.082 437.094 350.118 437.108C350.153 437.123 350.186 437.145 350.213 437.172C350.241 437.199 350.262 437.231 350.277 437.267C350.292 437.303 350.299 437.341 350.299 437.379V438.862H354.712V437.379C354.712 437.341 354.719 437.303 354.734 437.267C354.749 437.231 354.77 437.199 354.798 437.172C354.825 437.145 354.858 437.123 354.893 437.108C354.929 437.094 354.967 437.086 355.006 437.086H362.069C362.108 437.086 362.146 437.094 362.182 437.108C362.218 437.123 362.25 437.145 362.277 437.172C362.305 437.199 362.326 437.231 362.341 437.267C362.356 437.303 362.364 437.341 362.363 437.379V438.862H366.781V437.379C366.781 437.341 366.789 437.303 366.803 437.267C366.818 437.231 366.84 437.199 366.867 437.172C366.895 437.145 366.927 437.123 366.963 437.108C366.999 437.094 367.037 437.086 367.076 437.086H374.138C374.177 437.086 374.215 437.094 374.251 437.108C374.287 437.123 374.319 437.145 374.347 437.172C374.374 437.199 374.396 437.231 374.411 437.267C374.425 437.303 374.433 437.341 374.433 437.379V438.862H378.845V437.379C378.845 437.341 378.853 437.303 378.868 437.267C378.882 437.231 378.904 437.199 378.931 437.172C378.959 437.145 378.991 437.123 379.027 437.108C379.063 437.094 379.101 437.086 379.14 437.086H386.203C386.241 437.086 386.28 437.094 386.315 437.108C386.351 437.123 386.384 437.145 386.411 437.172C386.438 437.199 386.46 437.231 386.475 437.267C386.49 437.303 386.497 437.341 386.497 437.379V438.862H390.909V437.379C390.909 437.341 390.917 437.303 390.932 437.267C390.947 437.231 390.968 437.199 390.996 437.172C391.023 437.145 391.055 437.123 391.091 437.108C391.127 437.094 391.165 437.086 391.204 437.086H398.267C398.306 437.086 398.344 437.094 398.38 437.108C398.415 437.123 398.448 437.145 398.475 437.172C398.503 437.199 398.524 437.231 398.539 437.267C398.554 437.303 398.561 437.341 398.561 437.379V438.862H402.979V437.379C402.979 437.341 402.986 437.303 403.001 437.267C403.016 437.231 403.038 437.199 403.065 437.172C403.092 437.145 403.125 437.123 403.161 437.108C403.196 437.094 403.235 437.086 403.273 437.086H410.336C410.375 437.086 410.413 437.094 410.449 437.108C410.485 437.123 410.517 437.145 410.545 437.172C410.572 437.199 410.594 437.231 410.609 437.267C410.623 437.303 410.631 437.341 410.631 437.379V438.862H415.043V437.379C415.043 437.341 415.051 437.303 415.065 437.267C415.08 437.231 415.102 437.199 415.129 437.172C415.157 437.145 415.189 437.123 415.225 437.108C415.261 437.094 415.299 437.086 415.338 437.086H470.663C470.701 437.086 470.74 437.094 470.775 437.108C470.811 437.123 470.844 437.145 470.871 437.172C470.898 437.199 470.92 437.231 470.935 437.267C470.95 437.303 470.957 437.341 470.957 437.379V438.862H475.375V437.379C475.375 437.341 475.382 437.303 475.397 437.267C475.412 437.231 475.433 437.199 475.461 437.172C475.488 437.145 475.521 437.123 475.556 437.108C475.592 437.094 475.63 437.086 475.669 437.086H482.732C482.81 437.087 482.884 437.118 482.939 437.173C482.995 437.228 483.026 437.302 483.027 437.379V438.862H487.439V437.379C487.439 437.341 487.446 437.303 487.461 437.267C487.476 437.231 487.498 437.199 487.525 437.172C487.552 437.145 487.585 437.123 487.621 437.108C487.656 437.094 487.695 437.086 487.733 437.086H494.796C494.835 437.086 494.873 437.094 494.909 437.108C494.945 437.123 494.977 437.145 495.005 437.172C495.032 437.199 495.054 437.231 495.068 437.267C495.083 437.303 495.091 437.341 495.091 437.379V438.862H499.503V437.379C499.503 437.341 499.511 437.303 499.525 437.267C499.54 437.231 499.562 437.199 499.589 437.172C499.617 437.145 499.649 437.123 499.685 437.108C499.721 437.094 499.759 437.086 499.798 437.086H506.861C506.899 437.086 506.938 437.094 506.973 437.108C507.009 437.123 507.042 437.145 507.069 437.172C507.096 437.199 507.118 437.231 507.133 437.267C507.147 437.303 507.155 437.341 507.155 437.379V438.862H511.573V437.379C511.573 437.341 511.58 437.303 511.595 437.267C511.61 437.231 511.631 437.199 511.659 437.172C511.686 437.145 511.719 437.123 511.754 437.108C511.79 437.094 511.828 437.086 511.867 437.086H518.93C519.007 437.087 519.081 437.118 519.135 437.173C519.189 437.228 519.22 437.302 519.219 437.379V438.862H523.637V437.379C523.637 437.341 523.644 437.303 523.659 437.267C523.674 437.231 523.696 437.199 523.723 437.172C523.75 437.145 523.783 437.123 523.819 437.108C523.854 437.094 523.893 437.086 523.931 437.086H530.994C531.033 437.086 531.071 437.094 531.107 437.108C531.143 437.123 531.175 437.145 531.203 437.172C531.23 437.199 531.252 437.231 531.266 437.267C531.281 437.303 531.289 437.341 531.289 437.379V438.862H535.701V437.379C535.701 437.341 535.709 437.303 535.723 437.267C535.738 437.231 535.76 437.199 535.787 437.172C535.814 437.145 535.847 437.123 535.883 437.108C535.918 437.094 535.957 437.086 535.995 437.086H543.058C543.097 437.086 543.135 437.094 543.171 437.108C543.207 437.123 543.239 437.145 543.267 437.172C543.294 437.199 543.316 437.231 543.331 437.267C543.345 437.303 543.353 437.341 543.353 437.379V438.862H563.952C564.88 438.861 565.799 439.043 566.656 439.397C567.513 439.75 568.291 440.268 568.947 440.921C569.603 441.575 570.123 442.35 570.478 443.204C570.833 444.057 571.016 444.972 571.015 445.896V445.896Z" fill="#3F3D56"/>
<path id="Vector_11" d="M639.303 451.626H253.817V452.674H639.303V451.626Z" fill="#3F3D56"/>
<path id="Vector_12" d="M552.106 312.003H464.573V310.206H424.883V312.003H336.989C335.419 312.003 333.913 312.624 332.802 313.73C331.692 314.836 331.068 316.336 331.068 317.9V437.275C331.068 438.839 331.692 440.339 332.802 441.445C333.913 442.551 335.419 443.172 336.989 443.172H552.106C553.676 443.172 555.182 442.551 556.293 441.445C557.403 440.339 558.027 438.839 558.027 437.275V317.9C558.027 317.125 557.874 316.359 557.576 315.643C557.279 314.928 556.843 314.278 556.293 313.73C555.743 313.182 555.09 312.748 554.372 312.452C553.654 312.155 552.884 312.003 552.106 312.003V312.003Z" fill="#2A2932"/>
<path id="Vector_13" d="M444.72 366.774C451.981 366.774 457.867 360.911 457.867 353.68C457.867 346.448 451.981 340.585 444.72 340.585C437.459 340.585 431.572 346.448 431.572 353.68C431.572 360.911 437.459 366.774 444.72 366.774Z" stroke="#D0CDE1" stroke-width="2" stroke-miterlimit="10"/>
<path id="Vector_14" d="M440.513 371.488C447.774 371.488 453.66 365.625 453.66 358.394C453.66 351.162 447.774 345.299 440.513 345.299C433.251 345.299 427.365 351.162 427.365 358.394C427.365 365.625 433.251 371.488 440.513 371.488Z" fill="#D0CDE1"/>
<path id="Vector_15" d="M279.032 446.334H264.307V461H279.032V446.334Z" fill="#D0CDE1"/>
<path id="Vector_16" d="M270.094 434.811V452.62H287.974V434.811H270.094ZM287.196 451.845H270.867V435.586H287.196V451.845Z" fill="#3F3D56"/>
<path id="Vector_17" d="M619.817 446.334H605.092V461H619.817V446.334Z" fill="#D0CDE1"/>
<path id="Vector_18" d="M610.879 434.811V452.62H628.759V434.811H610.879ZM627.981 451.845H611.652V435.586H627.981V451.845Z" fill="#3F3D56"/>
<path id="Vector_19" d="M271.74 220.528C294.784 220.528 313.465 201.923 313.465 178.972C313.465 156.02 294.784 137.415 271.74 137.415C248.696 137.415 230.015 156.02 230.015 178.972C230.015 201.923 248.696 220.528 271.74 220.528Z" fill="#FF8863"/>
<path id="Vector_20" d="M286.281 129.588C282.503 129.11 278.679 129.11 274.901 129.588C266.484 130.689 258.561 134.171 252.072 139.622C245.582 145.073 240.799 152.263 238.29 160.34C237.149 164.021 236.503 167.836 236.368 171.687C236.349 172.222 236.337 172.763 236.337 173.305C236.348 184.991 241.015 196.195 249.311 204.458C257.608 212.721 268.857 217.368 280.591 217.38C281.533 217.38 282.475 217.349 283.404 217.292C285.586 217.156 287.754 216.857 289.89 216.398C300.094 214.213 309.194 208.506 315.583 200.287C321.972 192.068 325.239 181.864 324.807 171.478C324.375 161.093 320.272 151.193 313.223 143.528C306.173 135.863 296.631 130.926 286.281 129.588H286.281ZM294.442 213.842H294.436C290.872 215.053 287.162 215.788 283.404 216.026C282.475 216.089 281.533 216.121 280.591 216.121C269.193 216.107 258.267 211.592 250.208 203.565C242.149 195.538 237.615 184.656 237.601 173.305C237.601 172.763 237.614 172.222 237.633 171.687C238.067 160.624 242.781 150.158 250.789 142.479C258.796 134.8 269.475 130.503 280.591 130.489C290.776 130.489 300.629 134.091 308.397 140.652C316.164 147.213 321.34 156.308 323.003 166.315C324.666 176.323 322.708 186.594 317.478 195.297C312.247 204.001 304.084 210.573 294.442 213.842H294.442Z" fill="#3F3D56"/>
<path id="Vector_21" d="M281.223 133.007H279.959V141.822H281.223V133.007Z" fill="#3F3D56"/>
<path id="Vector_22" d="M252.428 144.365L251.533 145.255L257.792 151.489L258.686 150.598L252.428 144.365Z" fill="#3F3D56"/>
<path id="Vector_23" d="M240.13 172.675V173.934H248.981V172.675H240.13Z" fill="#3F3D56"/>
<path id="Vector_24" d="M251.533 201.354L252.428 202.245L258.686 196.011L257.792 195.121L251.533 201.354Z" fill="#3F3D56"/>
<path id="Vector_25" d="M302.495 150.598L303.389 151.489L309.648 145.255L308.754 144.365L302.495 150.598Z" fill="#3F3D56"/>
<path id="Vector_26" d="M312.201 172.675V173.934H321.052V172.675H312.201Z" fill="#3F3D56"/>
<path id="Vector_27" d="M303.389 195.121L302.495 196.011L308.754 202.245L309.648 201.354L303.389 195.121Z" fill="#3F3D56"/>
<path id="Vector_28" d="M281.223 204.787H279.959V213.602H281.223V204.787Z" fill="#3F3D56"/>
<path id="Vector_29" d="M282.487 170.786C281.94 170.377 281.275 170.157 280.591 170.157C279.907 170.157 279.241 170.377 278.694 170.786C278.32 171.07 278.011 171.43 277.79 171.844C277.51 172.376 277.389 172.978 277.441 173.577C277.493 174.176 277.716 174.747 278.084 175.224C278.452 175.7 278.949 176.062 279.517 176.266C280.084 176.47 280.699 176.508 281.288 176.376C281.876 176.243 282.415 175.946 282.839 175.518C283.263 175.091 283.556 174.551 283.682 173.963C283.808 173.375 283.763 172.764 283.551 172.201C283.339 171.638 282.97 171.147 282.487 170.786H282.487ZM280.591 175.194C280.088 175.192 279.607 174.993 279.251 174.639C278.896 174.285 278.696 173.805 278.694 173.305C278.697 172.923 278.813 172.55 279.029 172.234C279.214 171.967 279.466 171.752 279.759 171.61C280.052 171.468 280.377 171.403 280.702 171.423C281.028 171.442 281.343 171.545 281.617 171.721C281.89 171.898 282.114 172.141 282.266 172.429C282.417 172.716 282.492 173.038 282.482 173.362C282.473 173.687 282.379 174.003 282.211 174.281C282.042 174.559 281.805 174.79 281.521 174.949C281.237 175.109 280.917 175.193 280.591 175.194V175.194Z" fill="#3F3D56"/>
<path id="Vector_30" d="M286.281 118.525H274.901V129.859H286.281V118.525Z" fill="#3F3D56"/>
<path id="Vector_31" d="M280.591 120.414C288.97 120.414 295.764 118.018 295.764 115.062C295.764 112.106 288.97 109.71 280.591 109.71C272.211 109.71 265.418 112.106 265.418 115.062C265.418 118.018 272.211 120.414 280.591 120.414Z" fill="#3F3D56"/>
<g id="clock">
<path id="Vector_32" d="M282.487 149.378H278.694V170.786H282.487V149.378Z" fill="#3F3D56"/>
</g>
<path id="Vector_33" d="M340.854 215.462H222V216.721H340.854V215.462Z" fill="#3F3D56"/>
<g id="leave-to-right">
<path id="Vector_34" d="M301.198 414.138C301.688 430.873 291.871 437.006 279.55 437.364C279.264 437.373 278.979 437.378 278.695 437.38C278.124 437.384 277.558 437.374 276.998 437.351C265.855 436.89 257.034 430.999 256.578 415.436C256.106 399.33 276.178 378.403 277.684 376.855L277.686 376.854C277.744 376.795 277.773 376.766 277.773 376.766C277.773 376.766 300.707 397.405 301.198 414.138Z" fill="#D0CDE1"/>
</g>
<path id="Vector_35" d="M278.663 434.828L286.489 423.236L278.679 436.075L278.695 437.38C278.124 437.384 277.558 437.374 276.998 437.351L277.386 420.584L277.375 420.455L277.389 420.43L277.427 418.845L268.855 406.451L277.416 417.659L277.447 417.994L277.74 405.326L270.337 392.476L277.761 403.101L277.684 376.855L277.684 376.768L277.686 376.854L278.178 397.539L284.925 389.137L278.2 399.321L278.347 410.652L284.556 399.593L278.37 412.318L278.452 418.619L287.481 403.214L278.479 420.817L278.663 434.828Z" fill="#3F3D56"/>
<path id="Vector_36" d="M641.982 414.138C642.473 430.873 632.655 437.006 620.335 437.364C620.048 437.373 619.763 437.378 619.48 437.38C618.908 437.384 618.343 437.374 617.782 437.351C606.639 436.89 597.819 430.999 597.363 415.436C596.89 399.33 616.962 378.403 618.468 376.855L618.471 376.854C618.528 376.795 618.558 376.766 618.558 376.766C618.558 376.766 641.492 397.405 641.982 414.138Z" fill="#D0CDE1"/>
<g id="leav-to-left">
<path id="Vector_37" d="M619.447 434.828L627.274 423.236L619.463 436.075L619.48 437.38C618.908 437.384 618.343 437.374 617.782 437.351L618.171 420.584L618.16 420.455L618.174 420.43L618.211 418.845L609.64 406.451L618.201 417.659L618.232 417.994L618.525 405.326L611.122 392.476L618.546 403.101L618.468 376.855L618.469 376.768L618.471 376.854L618.963 397.539L625.71 389.137L618.985 399.321L619.132 410.652L625.341 399.593L619.155 412.318L619.237 418.619L628.266 403.214L619.264 420.817L619.447 434.828Z" fill="#3F3D56"/>
</g>
</g>
</g>
<defs>
<linearGradient id="paint0_linear" x1="327" y1="-38" x2="327" y2="669" gradientUnits="userSpaceOnUse">
<stop stop-color="white"/>
<stop offset="1" stop-color="white" stop-opacity="0"/>
</linearGradient>
<clipPath id="clip0">
<rect width="788" height="551" fill="white"/>
</clipPath>
</defs>
</svg>
