<svg width="732" height="727" viewBox="0 0 732 727" fill="none" xmlns="http://www.w3.org/2000/svg">
<g id="design">
<path id="Ellipse 1" d="M366 727C568.136 727 732 564.255 732 363.5C732 162.744 568.136 0 366 0C163.864 0 0 162.744 0 363.5C0 564.255 163.864 727 366 727Z" fill="black" fill-opacity="0.9"/>
<g id="undraw dev productivity umsq 1">
<path id="Vector" d="M427.85 510.171C427.85 510.171 425.346 511.025 421.276 512.235C412.278 514.922 395.628 519.379 381.518 520.269C369.369 521.045 359.104 519.18 357.226 511.287C356.422 507.893 357.563 505.101 360.05 502.807C367.476 495.95 386.871 493.494 402.254 492.651C406.598 492.415 410.616 492.305 413.961 492.263C419.64 492.19 423.364 492.305 423.364 492.305L423.453 492.651L427.85 510.171Z" fill="#A0616A"/>
<path id="Vector 2" d="M353.08 208.585L345.849 205.702C345.849 205.702 360.968 189.124 382.004 190.565L376.087 184.078C376.087 184.078 390.549 178.312 403.696 193.448C410.607 201.405 418.603 210.758 423.588 221.294H431.332L428.1 228.382L439.412 235.469L427.801 234.196C428.493 238.078 428.599 242.04 428.116 245.953C427.618 249.866 425.613 253.434 422.524 255.903C422.524 255.903 413.556 237.416 413.556 234.533V241.741C413.556 241.741 406.325 235.254 406.325 230.929L402.381 235.975L400.409 228.046L376.087 235.975L380.031 229.488L364.912 231.65L370.829 223.721C370.829 223.721 353.738 233.091 353.08 241.02C352.423 248.949 347.42 256.461 347.42 256.461C347.42 256.461 334.017 219.397 353.08 208.585Z" fill="#2F2E41"/>
<path id="Vector 3" d="M385.814 535.286C376.148 547.207 336.243 522.234 322.285 512.921C319.246 510.894 317.436 509.61 317.436 509.61L330.205 492.651L334.249 487.282C334.249 487.282 337.868 489.194 343.216 492.305C343.411 492.42 343.605 492.535 343.805 492.651C348.417 495.348 354.207 498.873 360.05 502.807C368.112 508.238 376.264 514.434 381.518 520.269C386.656 525.973 389.017 531.332 385.814 535.286Z" fill="#A0616A"/>
<g id="me">
<path id="Vector 4" d="M385.252 283.535C406.611 283.535 423.925 266.29 423.925 245.018C423.925 223.746 406.611 206.501 385.252 206.501C363.894 206.501 346.579 223.746 346.579 245.018C346.579 266.29 363.894 283.535 385.252 283.535Z" fill="#A0616A"/>
<path id="Vector 5" d="M356.388 264.276C356.388 264.276 363.674 318.981 352.464 325.121C341.255 331.262 419.161 331.82 419.161 331.82C419.161 331.82 401.786 284.372 409.633 269.858L356.388 264.276Z" fill="#A0616A"/>
<path id="Vector 6" d="M476.049 332.097L469.569 361.481L455.87 423.648L455.46 427.053L450.732 466.467L447.587 492.651L445.478 510.239C432.656 516.802 423.364 521.333 423.364 521.333C423.364 521.333 422.564 517.341 421.276 512.235C412.278 514.922 395.628 519.379 381.518 520.269C386.656 525.973 389.017 531.332 385.814 535.286C376.148 547.207 336.243 522.234 322.285 512.921C321.96 515.151 321.837 517.405 321.917 519.657L311.236 511.475L312.293 492.651L314.076 460.8L316.316 420.856C315.61 419.146 315.018 417.391 314.544 415.603C311.273 404.017 307.302 380.881 304.257 361.481C301.807 345.867 299.966 332.673 299.577 329.865C299.524 329.499 299.498 329.31 299.498 329.31L358.625 303.289C362.827 312.995 382.449 315.912 382.449 315.912C398.704 314.796 411.447 306.259 411.447 306.259L476.049 332.097Z" fill="#1D1743"/>
<path id="Vector 7" d="M518.084 467.184C514.145 471.438 504.384 477.843 492.551 484.778C488.15 487.355 483.464 490.011 478.683 492.651C467.277 498.952 455.333 505.195 445.478 510.239C432.656 516.802 423.364 521.333 423.364 521.333C423.364 521.333 422.564 517.341 421.276 512.235C419.551 505.399 416.953 496.563 414.245 492.651C414.15 492.514 414.055 492.389 413.961 492.263C413.172 491.231 412.378 490.629 411.594 490.629L450.732 466.467L467.645 456.023L455.46 427.053L440.177 390.713L449.401 361.481L458.673 332.097H476.049C476.049 332.097 481.802 344.605 489.159 362.046C490.258 364.655 491.394 367.373 492.551 370.181C507.687 406.845 526.556 458.044 518.084 467.184Z" fill="#D0CDE1"/>
<path id="Vector 8" d="M343.216 492.305C341.789 492.299 340.364 492.415 338.956 492.651C326.866 494.72 323.3 505.619 322.285 512.921C321.96 515.151 321.837 517.405 321.917 519.657L311.236 511.475L307.344 508.495C297.978 505.242 289.632 499.465 282.396 492.651C276.118 486.634 270.487 479.983 265.593 472.805C260.719 465.729 256.374 458.307 252.593 450.596C251.538 448.445 250.971 446.089 250.931 443.694C250.892 441.3 251.382 438.927 252.366 436.742L265.593 407.385L284.925 364.477C285.067 363.455 285.223 362.457 285.393 361.481C289.227 339.587 299.498 329.865 299.498 329.865H307.344L312.593 361.481L319.114 400.759L314.544 415.603L303.984 449.884L314.076 460.8L343.216 492.305Z" fill="#D0CDE1"/>
</g>
<path id="Vector 9" d="M352.097 400.79L358.805 408.584C361.297 408.111 363.899 407.555 366.58 406.931L364.653 400.79L369.364 406.264C397.761 399.308 432.96 385.783 432.96 385.783C432.96 385.783 394.959 388.559 366.586 382.385C354.033 379.653 341.116 385.851 335.965 397.576C332.971 404.39 333.441 410.295 344.061 410.295C347.649 410.233 351.227 409.898 354.764 409.292L352.097 400.79Z" fill="#6C63FF"/>
<path id="Vector 10" d="M505.015 528.896V532.075C505.017 532.948 504.855 533.813 504.537 534.626C504.396 534.989 504.225 535.339 504.027 535.674C503.4 536.722 502.51 537.589 501.446 538.191C500.381 538.794 499.177 539.11 497.952 539.11H263.111C261.886 539.11 260.682 538.794 259.618 538.191C258.553 537.589 257.663 536.722 257.037 535.674C256.838 535.339 256.668 534.989 256.526 534.626C256.208 533.813 256.046 532.948 256.048 532.075V528.896C256.048 527.972 256.23 527.057 256.585 526.204C256.94 525.35 257.46 524.575 258.116 523.921C258.772 523.268 259.551 522.75 260.408 522.397C261.265 522.043 262.183 521.861 263.111 521.862H276.647V520.379C276.647 520.341 276.655 520.303 276.67 520.267C276.684 520.231 276.706 520.199 276.734 520.172C276.761 520.145 276.793 520.123 276.829 520.108C276.865 520.094 276.903 520.086 276.942 520.086H284.005C284.043 520.086 284.082 520.094 284.118 520.108C284.153 520.123 284.186 520.145 284.213 520.172C284.241 520.199 284.262 520.231 284.277 520.267C284.292 520.303 284.299 520.341 284.299 520.379V521.862H288.712V520.379C288.712 520.341 288.719 520.303 288.734 520.267C288.749 520.231 288.77 520.199 288.798 520.172C288.825 520.145 288.858 520.123 288.893 520.108C288.929 520.094 288.967 520.086 289.006 520.086H296.069C296.108 520.086 296.146 520.094 296.182 520.108C296.218 520.123 296.25 520.145 296.277 520.172C296.305 520.199 296.326 520.231 296.341 520.267C296.356 520.303 296.364 520.341 296.363 520.379V521.862H300.781V520.379C300.781 520.341 300.789 520.303 300.803 520.267C300.818 520.231 300.84 520.199 300.867 520.172C300.895 520.145 300.927 520.123 300.963 520.108C300.999 520.094 301.037 520.086 301.076 520.086H308.138C308.177 520.086 308.215 520.094 308.251 520.108C308.287 520.123 308.319 520.145 308.347 520.172C308.374 520.199 308.396 520.231 308.411 520.267C308.425 520.303 308.433 520.341 308.433 520.379V521.862H312.845V520.379C312.845 520.341 312.853 520.303 312.868 520.267C312.882 520.231 312.904 520.199 312.931 520.172C312.959 520.145 312.991 520.123 313.027 520.108C313.063 520.094 313.101 520.086 313.14 520.086H320.203C320.241 520.086 320.28 520.094 320.315 520.108C320.351 520.123 320.384 520.145 320.411 520.172C320.438 520.199 320.46 520.231 320.475 520.267C320.49 520.303 320.497 520.341 320.497 520.379V521.862H324.909V520.379C324.909 520.341 324.917 520.303 324.932 520.267C324.947 520.231 324.968 520.199 324.996 520.172C325.023 520.145 325.055 520.123 325.091 520.108C325.127 520.094 325.165 520.086 325.204 520.086H332.267C332.306 520.086 332.344 520.094 332.38 520.108C332.415 520.123 332.448 520.145 332.475 520.172C332.503 520.199 332.524 520.231 332.539 520.267C332.554 520.303 332.561 520.341 332.561 520.379V521.862H336.979V520.379C336.979 520.341 336.986 520.303 337.001 520.267C337.016 520.231 337.038 520.199 337.065 520.172C337.092 520.145 337.125 520.123 337.161 520.108C337.196 520.094 337.235 520.086 337.273 520.086H344.336C344.375 520.086 344.413 520.094 344.449 520.108C344.485 520.123 344.517 520.145 344.545 520.172C344.572 520.199 344.594 520.231 344.609 520.267C344.623 520.303 344.631 520.341 344.631 520.379V521.862H349.043V520.379C349.043 520.341 349.051 520.303 349.065 520.267C349.08 520.231 349.102 520.199 349.129 520.172C349.157 520.145 349.189 520.123 349.225 520.108C349.261 520.094 349.299 520.086 349.338 520.086H404.663C404.701 520.086 404.74 520.094 404.775 520.108C404.811 520.123 404.844 520.145 404.871 520.172C404.898 520.199 404.92 520.231 404.935 520.267C404.95 520.303 404.957 520.341 404.957 520.379V521.862H409.375V520.379C409.375 520.341 409.382 520.303 409.397 520.267C409.412 520.231 409.433 520.199 409.461 520.172C409.488 520.145 409.521 520.123 409.556 520.108C409.592 520.094 409.63 520.086 409.669 520.086H416.732C416.81 520.087 416.884 520.118 416.939 520.173C416.995 520.228 417.026 520.302 417.027 520.379V521.862H421.439V520.379C421.439 520.341 421.446 520.303 421.461 520.267C421.476 520.231 421.498 520.199 421.525 520.172C421.552 520.145 421.585 520.123 421.621 520.108C421.656 520.094 421.695 520.086 421.733 520.086H428.796C428.835 520.086 428.873 520.094 428.909 520.108C428.945 520.123 428.977 520.145 429.005 520.172C429.032 520.199 429.054 520.231 429.069 520.267C429.083 520.303 429.091 520.341 429.091 520.379V521.862H433.503V520.379C433.503 520.341 433.511 520.303 433.525 520.267C433.54 520.231 433.562 520.199 433.589 520.172C433.617 520.145 433.649 520.123 433.685 520.108C433.721 520.094 433.759 520.086 433.798 520.086H440.861C440.899 520.086 440.938 520.094 440.973 520.108C441.009 520.123 441.042 520.145 441.069 520.172C441.096 520.199 441.118 520.231 441.133 520.267C441.147 520.303 441.155 520.341 441.155 520.379V521.862H445.573V520.379C445.573 520.341 445.58 520.303 445.595 520.267C445.61 520.231 445.631 520.199 445.659 520.172C445.686 520.145 445.719 520.123 445.754 520.108C445.79 520.094 445.828 520.086 445.867 520.086H452.93C453.007 520.087 453.081 520.118 453.135 520.173C453.189 520.228 453.22 520.302 453.219 520.379V521.862H457.637V520.379C457.637 520.341 457.644 520.303 457.659 520.267C457.674 520.231 457.696 520.199 457.723 520.172C457.75 520.145 457.783 520.123 457.819 520.108C457.854 520.094 457.893 520.086 457.931 520.086H464.994C465.033 520.086 465.071 520.094 465.107 520.108C465.143 520.123 465.175 520.145 465.203 520.172C465.23 520.199 465.252 520.231 465.266 520.267C465.281 520.303 465.289 520.341 465.289 520.379V521.862H469.701V520.379C469.701 520.341 469.709 520.303 469.723 520.267C469.738 520.231 469.76 520.199 469.787 520.172C469.814 520.145 469.847 520.123 469.883 520.108C469.918 520.094 469.957 520.086 469.995 520.086H477.058C477.097 520.086 477.135 520.094 477.171 520.108C477.207 520.123 477.239 520.145 477.267 520.172C477.294 520.199 477.316 520.231 477.331 520.267C477.345 520.303 477.353 520.341 477.353 520.379V521.862H497.952C498.88 521.861 499.799 522.043 500.656 522.397C501.513 522.75 502.291 523.268 502.947 523.921C503.603 524.575 504.123 525.35 504.478 526.204C504.833 527.057 505.016 527.972 505.015 528.896Z" fill="#3F3D56"/>
<path id="Vector 11" d="M573.303 534.626H187.817V535.674H573.303V534.626Z" fill="#3F3D56"/>
<path id="Vector 12" d="M486.106 395.003H398.573V393.206H358.883V395.003H270.989C269.419 395.003 267.913 395.624 266.802 396.73C265.692 397.836 265.068 399.336 265.068 400.9V520.275C265.068 521.839 265.692 523.339 266.802 524.445C267.913 525.551 269.419 526.172 270.989 526.172H486.106C487.676 526.172 489.182 525.551 490.293 524.445C491.403 523.339 492.027 521.839 492.027 520.275V400.9C492.027 400.125 491.874 399.359 491.576 398.643C491.279 397.928 490.843 397.278 490.293 396.73C489.743 396.182 489.09 395.748 488.372 395.452C487.654 395.155 486.884 395.003 486.106 395.003Z" fill="#2A2932"/>
<path id="Vector 13" d="M378.72 449.774C385.981 449.774 391.867 443.911 391.867 436.68C391.867 429.448 385.981 423.585 378.72 423.585C371.459 423.585 365.572 429.448 365.572 436.68C365.572 443.911 371.459 449.774 378.72 449.774Z" stroke="black" stroke-width="2" stroke-miterlimit="10"/>
<path id="Vector 14" d="M374.513 454.488C381.774 454.488 387.66 448.625 387.66 441.394C387.66 434.162 381.774 428.299 374.513 428.299C367.251 428.299 361.365 434.162 361.365 441.394C361.365 448.625 367.251 454.488 374.513 454.488Z" fill="#D0CDE1"/>
<path id="Vector 15" d="M213.032 529.334H198.307V544H213.032V529.334Z" fill="#D0CDE1"/>
<path id="Vector 16" d="M204.094 517.811V535.62H221.974V517.811H204.094ZM221.196 534.845H204.867V518.586H221.196V534.845Z" fill="#3F3D56"/>
<path id="Vector 17" d="M553.817 529.334H539.092V544H553.817V529.334Z" fill="#D0CDE1"/>
<path id="Vector 18" d="M544.879 517.811V535.62H562.759V517.811H544.879ZM561.981 534.845H545.652V518.586H561.981V534.845Z" fill="#3F3D56"/>
<path id="Vector 19" d="M205.74 303.528C228.784 303.528 247.465 284.923 247.465 261.972C247.465 239.02 228.784 220.415 205.74 220.415C182.696 220.415 164.015 239.02 164.015 261.972C164.015 284.923 182.696 303.528 205.74 303.528Z" fill="#FF8863"/>
<path id="Vector 20" d="M220.281 212.588C216.503 212.11 212.679 212.11 208.901 212.588C200.484 213.689 192.561 217.171 186.072 222.622C179.582 228.073 174.799 235.263 172.29 243.34C171.149 247.021 170.503 250.836 170.368 254.687C170.349 255.222 170.337 255.763 170.337 256.305C170.348 267.991 175.015 279.195 183.311 287.458C191.608 295.721 202.857 300.368 214.591 300.38C215.533 300.38 216.475 300.349 217.404 300.292C219.586 300.156 221.754 299.857 223.89 299.398C234.094 297.213 243.194 291.506 249.583 283.287C255.972 275.068 259.239 264.864 258.807 254.478C258.375 244.093 254.272 234.193 247.223 226.528C240.173 218.863 230.631 213.926 220.281 212.588ZM228.442 296.842H228.436C224.872 298.053 221.162 298.788 217.404 299.026C216.475 299.089 215.533 299.121 214.591 299.121C203.193 299.107 192.267 294.592 184.208 286.565C176.149 278.538 171.615 267.656 171.601 256.305C171.601 255.763 171.614 255.222 171.633 254.687C172.067 243.624 176.781 233.158 184.789 225.479C192.796 217.8 203.475 213.503 214.591 213.489C224.776 213.489 234.629 217.091 242.397 223.652C250.164 230.213 255.34 239.308 257.003 249.315C258.666 259.323 256.708 269.594 251.478 278.297C246.247 287.001 238.084 293.573 228.442 296.842Z" fill="#3F3D56"/>
<path id="Vector 21" d="M215.223 216.007H213.959V224.822H215.223V216.007Z" fill="#3F3D56"/>
<path id="Vector 22" d="M186.428 227.365L185.533 228.255L191.792 234.489L192.686 233.598L186.428 227.365Z" fill="#3F3D56"/>
<path id="Vector 23" d="M174.13 255.675V256.934H182.981V255.675H174.13Z" fill="#3F3D56"/>
<path id="Vector 24" d="M185.533 284.354L186.428 285.245L192.686 279.011L191.792 278.121L185.533 284.354Z" fill="#3F3D56"/>
<path id="Vector 25" d="M236.495 233.598L237.389 234.489L243.648 228.255L242.754 227.365L236.495 233.598Z" fill="#3F3D56"/>
<path id="Vector 26" d="M246.201 255.675V256.934H255.052V255.675H246.201Z" fill="#3F3D56"/>
<path id="Vector 27" d="M237.389 278.121L236.495 279.011L242.754 285.245L243.648 284.354L237.389 278.121Z" fill="#3F3D56"/>
<path id="Vector 28" d="M215.223 287.787H213.959V296.602H215.223V287.787Z" fill="#3F3D56"/>
<path id="Vector 29" d="M216.487 253.786C215.94 253.377 215.275 253.157 214.591 253.157C213.907 253.157 213.241 253.377 212.694 253.786C212.32 254.07 212.011 254.43 211.79 254.844C211.51 255.376 211.389 255.978 211.441 256.577C211.493 257.176 211.716 257.747 212.084 258.224C212.452 258.7 212.949 259.062 213.517 259.266C214.084 259.47 214.699 259.508 215.288 259.376C215.876 259.243 216.415 258.946 216.839 258.518C217.263 258.091 217.556 257.551 217.682 256.963C217.808 256.375 217.763 255.764 217.551 255.201C217.339 254.638 216.97 254.147 216.487 253.786ZM214.591 258.194C214.088 258.192 213.607 257.993 213.251 257.639C212.896 257.285 212.696 256.805 212.694 256.305C212.697 255.923 212.813 255.55 213.029 255.234C213.214 254.967 213.466 254.752 213.759 254.61C214.052 254.468 214.377 254.403 214.702 254.423C215.028 254.442 215.343 254.545 215.617 254.721C215.89 254.898 216.114 255.141 216.266 255.429C216.417 255.716 216.492 256.038 216.482 256.362C216.473 256.687 216.379 257.003 216.211 257.281C216.042 257.559 215.805 257.789 215.521 257.949C215.237 258.109 214.917 258.193 214.591 258.194Z" fill="#3F3D56"/>
<path id="Vector 30" d="M220.281 201.525H208.901V212.859H220.281V201.525Z" fill="#3F3D56"/>
<path id="Vector 31" d="M214.591 203.414C222.97 203.414 229.764 201.018 229.764 198.062C229.764 195.106 222.97 192.71 214.591 192.71C206.211 192.71 199.418 195.106 199.418 198.062C199.418 201.018 206.211 203.414 214.591 203.414Z" fill="#3F3D56"/>
<g id="clock">
<path id="Vector 32" d="M216.487 232.378H212.694V253.786H216.487V232.378Z" fill="#3F3D56"/>
</g>
<path id="Vector 33" d="M274.854 298.462H156V299.721H274.854V298.462Z" fill="#3F3D56"/>
<g id="leave to right">
<path id="Vector 34" d="M235.198 497.138C235.688 513.873 225.871 520.006 213.55 520.364C213.264 520.373 212.979 520.378 212.695 520.38C212.124 520.384 211.558 520.374 210.998 520.351C199.855 519.89 191.034 513.999 190.578 498.436C190.106 482.33 210.178 461.403 211.684 459.855L211.686 459.854C211.744 459.795 211.773 459.766 211.773 459.766C211.773 459.766 234.707 480.405 235.198 497.138Z" fill="#FF8863"/>
</g>
<path id="Vector 35" d="M212.663 517.828L220.489 506.236L212.679 519.075L212.695 520.38C212.124 520.384 211.558 520.374 210.998 520.351L211.386 503.584L211.375 503.455L211.389 503.43L211.427 501.845L202.855 489.451L211.416 500.659L211.447 500.994L211.74 488.326L204.337 475.476L211.761 486.101L211.684 459.855V459.768L211.686 459.854L212.178 480.539L218.925 472.137L212.2 482.321L212.347 493.652L218.556 482.593L212.37 495.318L212.452 501.619L221.481 486.214L212.479 503.817L212.663 517.828Z" fill="#3F3D56"/>
<path id="Vector 36" d="M575.982 497.138C576.473 513.873 566.655 520.006 554.335 520.364C554.048 520.373 553.763 520.378 553.48 520.38C552.908 520.384 552.343 520.374 551.782 520.351C540.639 519.89 531.819 513.999 531.363 498.436C530.89 482.33 550.962 461.403 552.468 459.855L552.471 459.854C552.528 459.795 552.558 459.766 552.558 459.766C552.558 459.766 575.492 480.405 575.982 497.138Z" fill="#FF8863"/>
<g id="leav to left">
<path id="Vector 37" d="M553.447 517.828L561.274 506.236L553.463 519.075L553.48 520.38C552.908 520.384 552.343 520.374 551.782 520.351L552.171 503.584L552.16 503.455L552.174 503.43L552.211 501.845L543.64 489.451L552.201 500.659L552.232 500.994L552.525 488.326L545.122 475.476L552.546 486.101L552.468 459.855L552.469 459.768L552.471 459.854L552.963 480.539L559.71 472.137L552.985 482.321L553.132 493.652L559.341 482.593L553.155 495.318L553.237 501.619L562.266 486.214L553.264 503.817L553.447 517.828Z" fill="#3F3D56"/>
</g>
</g>
</g>
</svg>
